HIERARCHY
ROOT Hips
{
	OFFSET 0.000000 0.000000 0.000000
	CHANNELS 6 Xposition Yposition Zposition Zrotation Yrotation Xrotation 
	JOINT LowerBack
	{
		OFFSET 0.000000 0.000000 0.000000
		CHANNELS 3 Zrotation Yrotation Xrotation
		JOINT Spine
		{
			OFFSET 0.028270 2.035590 -0.193380
			CHANNELS 3 Zrotation Yrotation Xrotation
			JOINT Spine1
			{
				OFFSET 0.056720 2.048850 -0.042750
				CHANNELS 3 Zrotation Yrotation Xrotation
				JOINT Neck
				{
					OFFSET 0.000000 0.000000 0.000000
					CHANNELS 3 Zrotation Yrotation Xrotation
					JOINT Neck1
					{
						OFFSET -0.054170 1.746240 0.172020
						CHANNELS 3 Zrotation Yrotation Xrotation
						JOINT Head
						{
							OFFSET 0.104070 1.761360 -0.123970
							CHANNELS 3 Zrotation Yrotation Xrotation
							End Site
							{
								OFFSET 0.000000 0.000000 0.000000
							}
						}
					}
				}
				JOINT LeftShoulder
				{
					OFFSET 0.000000 0.000000 0.000000
					CHANNELS 3 Zrotation Yrotation Xrotation
					JOINT LeftArm
					{
						OFFSET 3.362410 1.200890 -0.311210
						CHANNELS 3 Zrotation Yrotation Xrotation
						JOINT LeftForeArm
						{
							OFFSET 4.983000 -0.000000 -0.000000
							CHANNELS 3 Zrotation Yrotation Xrotation
							JOINT LeftHand
							{
								OFFSET 3.483560 -0.000000 -0.000000
								CHANNELS 3 Zrotation Yrotation Xrotation
								JOINT LeftFingerBase
								{
									OFFSET 0.000000 0.000000 0.000000
									CHANNELS 3 Zrotation Yrotation Xrotation
									JOINT LeftHandIndex1
									{
										OFFSET 0.715260 -0.000000 -0.000000
										CHANNELS 3 Zrotation Yrotation Xrotation
										End Site
										{
											OFFSET 0.000000 0.000000 0.000000
										}
									}
								}
								JOINT LThumb
								{
									OFFSET 0.000000 0.000000 0.000000
									CHANNELS 3 Zrotation Yrotation Xrotation
									End Site
									{
										OFFSET 0.000000 0.000000 0.000000
									}
								}
							}
						}
					}
				}
				JOINT RightShoulder
				{
					OFFSET 0.000000 0.000000 0.000000
					CHANNELS 3 Zrotation Yrotation Xrotation
					JOINT RightArm
					{
						OFFSET -3.136600 1.374050 -0.404650
						CHANNELS 3 Zrotation Yrotation Xrotation
						JOINT RightForeArm
						{
							OFFSET -5.241900 -0.000000 -0.000000
							CHANNELS 3 Zrotation Yrotation Xrotation
							JOINT RightHand
							{
								OFFSET -3.444170 -0.000000 -0.000000
								CHANNELS 3 Zrotation Yrotation Xrotation
								JOINT RightFingerBase
								{
									OFFSET 0.000000 0.000000 0.000000
									CHANNELS 3 Zrotation Yrotation Xrotation
									JOINT RightHandIndex1
									{
										OFFSET -0.622530 -0.000000 -0.000000
										CHANNELS 3 Zrotation Yrotation Xrotation
										End Site
										{
											OFFSET 0.000000 0.000000 0.000000
										}
									}
								}
								JOINT RThumb
								{
									OFFSET 0.000000 0.000000 0.000000
									CHANNELS 3 Zrotation Yrotation Xrotation
									End Site
									{
										OFFSET 0.000000 0.000000 0.000000
									}
								}
							}
						}
					}
				}
			}
		}
	}
}
}
MOTION
Frames: 13
Frame Time: 0.008333
10.683687 16.604912 1.024764 -174.827306 -84.796285 -172.481218 4.081304 -5.844512 -7.787042 0.695053 -6.478520 -4.256418 -6.246210 -6.591483 0.363486 10.849254 -15.102259 -9.189325 -3.986169 -0.295535 -0.331134 0.000000 0.000000 0.000000 0.099606 3.186185 -0.851087 -72.296808 -12.945104 3.385968 -1.007340 -78.292839 -0.135152 21.473710 -5.199677 -1.084133 -0.282845 0.462283 -0.000000 0.000000 0.000000 0.000000 0.000000 0.000000 0.000000 17.933139 -14.484278 0.952741 56.905865 -6.502096 -37.774461 1.170692 54.891850 -0.010095 -12.107174 12.003572 -1.312528 0.137756 -0.194335 -0.000000 0.000000 0.000000 0.000000 0.000000 0.000000 0.000000 
10.507775 16.630770 0.996393 -168.788816 -84.700993 -178.513560 4.573596 -5.799558 -7.777774 0.792266 -6.493844 -4.267630 -6.269952 -6.609906 0.338417 10.908262 -14.914785 -9.204774 -3.984949 -0.295356 -0.335476 0.000000 0.000000 0.000000 -0.064039 3.319416 -0.788204 -72.903441 -12.191060 3.141868 -1.029258 -77.601430 -0.131477 21.351769 -5.169050 -1.069795 -0.274822 0.451384 -0.000000 0.000000 0.000000 0.000000 0.000000 0.000000 0.000000 17.961753 -14.250412 0.920425 56.866798 -5.882816 -37.531126 1.160620 54.884579 -0.011052 -12.149352 12.000588 -1.317037 0.136973 -0.197413 -0.000000 0.000000 0.000000 0.000000 0.000000 0.000000 0.000000 
10.335672 16.656586 0.966376 -163.780597 -84.637803 176.526039 4.963221 -5.773043 -7.790534 0.866550 -6.516998 -4.279180 -6.301613 -6.635326 0.324173 10.995117 -14.744493 -9.231541 -3.985671 -0.295248 -0.342840 0.000000 0.000000 0.000000 -0.183830 3.453087 -0.722928 -73.422660 -11.466298 2.877377 -1.048857 -76.902377 -0.127969 21.240866 -5.096489 -1.047959 -0.266898 0.440088 -0.000000 0.000000 0.000000 0.000000 0.000000 0.000000 0.000000 18.032711 -14.036035 0.882499 56.875695 -5.231504 -37.252449 1.149592 54.912121 -0.011979 -12.197507 11.996430 -1.322043 0.136218 -0.200268 -0.000000 0.000000 0.000000 0.000000 0.000000 0.000000 0.000000 
10.167419 16.682223 0.935249 -159.383547 -84.610499 172.223616 5.278222 -5.755271 -7.826805 0.923609 -6.541913 -4.291810 -6.341474 -6.661915 0.319448 11.103435 -14.590621 -9.269516 -3.988113 -0.295192 -0.353221 0.000000 0.000000 0.000000 -0.270448 3.588412 -0.655299 -73.847534 -10.778703 2.602931 -1.066319 -76.210820 -0.124676 21.147022 -4.984832 -1.019720 -0.259244 0.428570 -0.000000 0.000000 0.000000 0.000000 0.000000 0.000000 0.000000 18.136415 -13.836648 0.841672 56.932359 -4.557423 -36.940560 1.137934 54.974095 -0.012879 -12.251198 11.994499 -1.327847 0.135528 -0.202997 -0.000000 0.000000 0.000000 0.000000 0.000000 0.000000 0.000000 
10.003229 16.707645 0.903448 -155.340436 -84.625705 168.319342 5.534048 -5.742006 -7.884498 0.966755 -6.566167 -4.305686 -6.388786 -6.687400 0.322334 11.226548 -14.451626 -9.318034 -3.991987 -0.295164 -0.366512 0.000000 0.000000 0.000000 -0.332624 3.723684 -0.585227 -74.171132 -10.132755 2.327471 -1.081569 -75.542073 -0.121637 21.075661 -4.840282 -0.986576 -0.252024 0.417038 0.000000 0.000000 0.000000 0.000000 0.000000 0.000000 0.000000 18.263116 -13.649047 0.800198 57.038660 -3.868957 -36.598085 1.125792 55.067448 -0.013751 -12.308236 12.000114 -1.334848 0.134894 -0.205686 -0.000000 0.000000 0.000000 0.000000 0.000000 0.000000 0.000000 
9.843058 16.732848 0.871342 -151.440093 -84.687735 164.599062 5.742157 -5.731136 -7.958920 0.998507 -6.588646 -4.320668 -6.442351 -6.710765 0.330628 11.356726 -14.323432 -9.375458 -3.996863 -0.295132 -0.382375 0.000000 0.000000 0.000000 -0.379207 3.856997 -0.512272 -74.388736 -9.530355 2.058075 -1.094468 -74.911057 -0.118869 21.029524 -4.671135 -0.950320 -0.245384 0.405708 0.000000 0.000000 0.000000 0.000000 0.000000 0.000000 0.000000 18.400975 -13.468531 0.760208 57.197149 -3.175100 -36.227550 1.113172 55.187334 -0.014603 -12.366249 12.017886 -1.343347 0.134286 -0.208421 -0.000000 0.000000 0.000000 0.000000 0.000000 0.000000 0.000000 
9.686988 16.757976 0.839348 -147.524835 -84.797204 160.897243 5.910348 -5.721441 -8.043236 1.020607 -6.608395 -4.336410 -6.500505 -6.731108 0.341432 11.485932 -14.199476 -9.439155 -4.002385 -0.295080 -0.400223 0.000000 0.000000 0.000000 -0.418150 3.986525 -0.435936 -74.497407 -8.970262 1.799035 -1.104831 -74.332029 -0.116377 21.009683 -4.487988 -0.912854 -0.239441 0.394792 0.000000 0.000000 0.000000 0.000000 0.000000 0.000000 0.000000 18.537988 -13.287997 0.723585 57.409959 -2.486316 -35.831123 1.100009 55.328540 -0.015443 -12.422182 12.050938 -1.353343 0.133657 -0.211280 -0.000000 0.000000 0.000000 0.000000 0.000000 0.000000 0.000000 
9.535190 16.783193 0.807578 -143.592857 -84.948289 157.196593 6.034030 -5.711676 -8.122550 1.031834 -6.622560 -4.350946 -6.562128 -6.745602 0.351327 11.608527 -14.071186 -9.505622 -4.008582 -0.295009 -0.419313 0.000000 0.000000 0.000000 -0.453226 4.110953 -0.355857 -74.495251 -8.449754 1.550570 -1.112114 -73.817223 -0.114144 21.014665 -4.301487 -0.875974 -0.234259 0.384455 -0.000000 0.000000 0.000000 0.000000 0.000000 0.000000 0.000000 18.666464 -13.098111 0.692037 57.679316 -1.811389 -35.410753 1.086025 55.486636 -0.016281 -12.474101 12.099829 -1.364738 0.132939 -0.214299 -0.000000 0.000000 0.000000 0.000000 0.000000 0.000000 0.000000 
9.387315 16.808657 0.776363 -139.490527 -85.135534 153.341534 6.123603 -5.700798 -8.198093 1.034846 -6.630884 -4.365391 -6.624327 -6.754044 0.358506 11.715028 -13.932928 -9.571883 -4.014401 -0.294865 -0.438848 0.000000 0.000000 0.000000 -0.493170 4.231161 -0.271828 -74.385004 -7.961543 1.310410 -1.116515 -73.378415 -0.112146 21.041021 -4.120506 -0.841179 -0.229879 0.374824 0.000000 0.000000 0.000000 0.000000 0.000000 0.000000 0.000000 18.770384 -12.892639 0.666327 58.005102 -1.156652 -34.965710 1.071316 55.653660 -0.017138 -12.518523 12.166042 -1.377330 0.132114 -0.217597 -0.000000 0.000000 0.000000 0.000000 0.000000 0.000000 0.000000 
9.243440 16.834586 0.745660 -135.333208 -85.347174 149.431745 6.170473 -5.686630 -8.256386 1.027521 -6.629247 -4.377732 -6.686044 -6.752324 0.360357 11.802464 -13.776856 -9.634481 -4.019949 -0.294661 -0.458052 0.000000 0.000000 0.000000 -0.538045 4.349264 -0.183972 -74.169456 -7.499978 1.072823 -1.117536 -73.023325 -0.110346 21.084446 -3.952097 -0.809468 -0.226302 0.365950 -0.000000 0.000000 0.000000 0.000000 0.000000 0.000000 0.000000 18.846103 -12.662178 0.647090 58.385194 -0.527326 -34.494195 1.055669 55.826584 -0.018027 -12.555189 12.245969 -1.390621 0.131138 -0.221181 -0.000000 0.000000 0.000000 0.000000 0.000000 0.000000 0.000000 
9.103433 16.861149 0.715393 -131.244390 -85.571487 145.580689 6.171805 -5.666079 -8.290238 1.009172 -6.613718 -4.386934 -6.745868 -6.736545 0.355367 11.867962 -13.597476 -9.690427 -4.025006 -0.294390 -0.476182 0.000000 0.000000 0.000000 -0.588605 4.469262 -0.092708 -73.854811 -7.058730 0.829443 -1.114914 -72.756909 -0.108706 21.139866 -3.798282 -0.781042 -0.223504 0.357811 -0.000000 0.000000 0.000000 0.000000 0.000000 0.000000 0.000000 18.889294 -12.399408 0.634263 58.814233 0.074693 -33.992058 1.039030 56.002722 -0.018966 -12.584404 12.335774 -1.404310 0.130003 -0.225081 -0.000000 0.000000 0.000000 0.000000 0.000000 0.000000 0.000000 
8.967059 16.888460 0.685473 -127.405302 -85.796706 141.962890 6.126913 -5.635330 -8.294936 0.979609 -6.580254 -4.392130 -6.802764 -6.702697 0.343020 11.910695 -13.391703 -9.737545 -4.029410 -0.294051 -0.492673 0.000000 0.000000 0.000000 -0.643822 4.596660 0.001194 -73.449927 -6.632084 0.570688 -1.108452 -72.580428 -0.107189 21.203511 -3.657245 -0.755303 -0.221458 0.350318 0.000000 0.000000 0.000000 0.000000 0.000000 0.000000 0.000000 18.898787 -12.099303 0.627196 59.284028 0.650065 -33.453394 1.021465 56.180801 -0.019975 -12.607448 12.430146 -1.417796 0.128731 -0.229310 -0.000000 0.000000 0.000000 0.000000 0.000000 0.000000 0.000000 
8.834057 16.916561 0.655763 -124.040039 -86.012637 138.797010 6.038091 -5.590119 -8.268546 0.939366 -6.525069 -4.392746 -6.855904 -6.647019 0.323574 11.931617 -13.159219 -9.774754 -4.032973 -0.293637 -0.507212 0.000000 0.000000 0.000000 -0.701928 4.737908 0.096667 -72.965168 -6.216202 0.286622 -1.098032 -72.490983 -0.105766 21.272931 -3.523612 -0.731151 -0.220123 0.343337 0.000000 0.000000 0.000000 0.000000 0.000000 0.000000 0.000000 18.875943 -11.759499 0.624766 59.782956 1.202205 -32.871390 1.003125 56.361240 -0.021066 -12.626973 12.524478 -1.431081 0.127366 -0.233877 -0.000000 0.000000 0.000000 0.000000 0.000000 0.000000 0.000000 
